<?xml version="1.0" encoding="UTF-8" standalone="no"?>
<svg
   xmlns:dc="http://purl.org/dc/elements/1.1/"
   xmlns:cc="http://creativecommons.org/ns#"
   xmlns:rdf="http://www.w3.org/1999/02/22-rdf-syntax-ns#"
   xmlns:svg="http://www.w3.org/2000/svg"
   xmlns="http://www.w3.org/2000/svg"
   xmlns:sodipodi="http://sodipodi.sourceforge.net/DTD/sodipodi-0.dtd"
   xmlns:inkscape="http://www.inkscape.org/namespaces/inkscape"
   version="1.1"
   id="Capa_1"
   x="0px"
   y="0px"
   viewBox="0 0 250.00001 180"
   xml:space="preserve"
   sodipodi:docname="burger.svg"
   inkscape:version="1.0.1 (3bc2e813f5, 2020-09-07)"
   width="250"
   height="180"><metadata
   id="metadata40"><rdf:RDF><cc:Work
       rdf:about=""><dc:format>image/svg+xml</dc:format><dc:type
         rdf:resource="http://purl.org/dc/dcmitype/StillImage" /><dc:title></dc:title></cc:Work></rdf:RDF></metadata><defs
   id="defs38" /><sodipodi:namedview
   pagecolor="#ffffff"
   bordercolor="#666666"
   borderopacity="1"
   objecttolerance="10"
   gridtolerance="10"
   guidetolerance="10"
   inkscape:pageopacity="0"
   inkscape:pageshadow="2"
   inkscape:window-width="1920"
   inkscape:window-height="1017"
   id="namedview36"
   showgrid="false"
   inkscape:zoom="1.6960719"
   inkscape:cx="99.641763"
   inkscape:cy="183.69048"
   inkscape:window-x="-8"
   inkscape:window-y="-8"
   inkscape:window-maximized="1"
   inkscape:current-layer="Capa_1" />
<g
   id="Menu"
   style="fill:#ffffff;fill-opacity:1">
	<path
   style="clip-rule:evenodd;fill:#ffffff;fill-opacity:1;fill-rule:evenodd;stroke-width:0.999999"
   d="M 22.321304,42.85696 H 227.6777 C 240.00515,42.85696 250,33.262848 250,21.42848 250,9.5941128 240.00615,0 227.6777,0 H 22.321304 C 9.9938542,9.5778305e-4 0,9.5941128 0,21.429438 0,33.263805 9.9938542,42.85696 22.321304,42.85696 Z M 227.6777,68.57152 H 22.321304 C 9.9938542,68.57152 0,78.165632 0,90 c 0,11.83533 9.9938542,21.42848 22.321304,21.42848 H 227.6777 C 240.00515,111.42848 250,101.83533 250,90 250,78.165632 240.00515,68.57152 227.6777,68.57152 Z m 0,68.57152 H 22.321304 C 9.9938542,137.14304 0,146.73619 0,158.57152 0,170.40589 9.9938542,180 22.321304,180 H 227.6777 C 240.00515,180 250,170.40589 250,158.57152 c 0,-11.83533 -9.99485,-21.42848 -22.3223,-21.42848 z"
   id="path2" />
</g>
<g
   id="g5"
   style="fill:#ffffff;fill-opacity:1">
</g>
<g
   id="g7"
   style="fill:#ffffff;fill-opacity:1">
</g>
<g
   id="g9"
   style="fill:#ffffff;fill-opacity:1">
</g>
<g
   id="g11"
   style="fill:#ffffff;fill-opacity:1">
</g>
<g
   id="g13"
   style="fill:#ffffff;fill-opacity:1">
</g>
<g
   id="g15"
   style="fill:#ffffff;fill-opacity:1">
</g>
<g
   id="g17"
   style="fill:#ffffff;fill-opacity:1">
</g>
<g
   id="g19"
   style="fill:#ffffff;fill-opacity:1">
</g>
<g
   id="g21"
   style="fill:#ffffff;fill-opacity:1">
</g>
<g
   id="g23"
   style="fill:#ffffff;fill-opacity:1">
</g>
<g
   id="g25"
   style="fill:#ffffff;fill-opacity:1">
</g>
<g
   id="g27"
   style="fill:#ffffff;fill-opacity:1">
</g>
<g
   id="g29"
   style="fill:#ffffff;fill-opacity:1">
</g>
<g
   id="g31"
   style="fill:#ffffff;fill-opacity:1">
</g>
<g
   id="g33"
   style="fill:#ffffff;fill-opacity:1">
</g>
</svg>
