<?xml version="1.0" encoding="UTF-8" standalone="no"?>
<svg
   xmlns:dc="http://purl.org/dc/elements/1.1/"
   xmlns:cc="http://creativecommons.org/ns#"
   xmlns:rdf="http://www.w3.org/1999/02/22-rdf-syntax-ns#"
   xmlns:svg="http://www.w3.org/2000/svg"
   xmlns="http://www.w3.org/2000/svg"
   xmlns:sodipodi="http://sodipodi.sourceforge.net/DTD/sodipodi-0.dtd"
   xmlns:inkscape="http://www.inkscape.org/namespaces/inkscape"
   enable-background="new 0 0 128 128"
   id="Social_Icons"
   version="1.1"
   viewBox="0 0 128 128"
   xml:space="preserve"
   sodipodi:docname="fbIcon.svg"
   inkscape:version="1.0.1 (3bc2e813f5, 2020-09-07)"><metadata
     id="metadata12"><rdf:RDF><cc:Work
         rdf:about=""><dc:format>image/svg+xml</dc:format><dc:type
           rdf:resource="http://purl.org/dc/dcmitype/StillImage" /><dc:title></dc:title></cc:Work></rdf:RDF></metadata><defs
     id="defs10" /><sodipodi:namedview
     pagecolor="#ffffff"
     bordercolor="#666666"
     borderopacity="1"
     objecttolerance="10"
     gridtolerance="10"
     guidetolerance="10"
     inkscape:pageopacity="0"
     inkscape:pageshadow="2"
     inkscape:window-width="1920"
     inkscape:window-height="1017"
     id="namedview8"
     showgrid="false"
     inkscape:zoom="6.640625"
     inkscape:cx="64"
     inkscape:cy="64"
     inkscape:window-x="-8"
     inkscape:window-y="-8"
     inkscape:window-maximized="1"
     inkscape:current-layer="Social_Icons" /><path
     clip-rule="evenodd"
     d="M 68.369,128 H 7.065 C 3.162,128 0,124.836 0,120.935 V 7.065 C 0,3.162 3.162,0 7.065,0 H 120.936 C 124.837,0 128,3.162 128,7.065 v 113.87 c 0,3.902 -3.163,7.065 -7.064,7.065 H 88.318 V 78.431 h 16.638 l 2.491,-19.318 H 88.318 V 46.78 c 0,-5.593 1.553,-9.404 9.573,-9.404 L 108.12,37.372 V 20.094 c -1.769,-0.235 -7.841,-0.761 -14.906,-0.761 -14.749,0 -24.846,9.003 -24.846,25.535 v 14.246 h -16.68 v 19.318 h 16.681 z"
     fill="#4460a0"
     fill-rule="evenodd"
     id="Facebook"
     style="fill:#ffffff;fill-opacity:1" /></svg>
