<?xml version="1.0" encoding="UTF-8" standalone="no"?>
<svg
   xmlns:dc="http://purl.org/dc/elements/1.1/"
   xmlns:cc="http://creativecommons.org/ns#"
   xmlns:rdf="http://www.w3.org/1999/02/22-rdf-syntax-ns#"
   xmlns:svg="http://www.w3.org/2000/svg"
   xmlns="http://www.w3.org/2000/svg"
   xmlns:sodipodi="http://sodipodi.sourceforge.net/DTD/sodipodi-0.dtd"
   xmlns:inkscape="http://www.inkscape.org/namespaces/inkscape"
   width="922"
   height="101"
   version="1.1"
   id="svg17"
   sodipodi:docname="footerText.svg"
   inkscape:version="1.0.1 (3bc2e813f5, 2020-09-07)">
  <metadata
     id="metadata21">
    <rdf:RDF>
      <cc:Work
         rdf:about="">
        <dc:format>image/svg+xml</dc:format>
        <dc:type
           rdf:resource="http://purl.org/dc/dcmitype/StillImage" />
        <dc:title></dc:title>
      </cc:Work>
    </rdf:RDF>
  </metadata>
  <sodipodi:namedview
     pagecolor="#ffffff"
     bordercolor="#666666"
     borderopacity="1"
     objecttolerance="10"
     gridtolerance="10"
     guidetolerance="10"
     inkscape:pageopacity="0"
     inkscape:pageshadow="2"
     inkscape:window-width="1920"
     inkscape:window-height="1017"
     id="namedview19"
     showgrid="false"
     inkscape:zoom="2"
     inkscape:cx="593.94443"
     inkscape:cy="27.386018"
     inkscape:window-x="-8"
     inkscape:window-y="-8"
     inkscape:window-maximized="1"
     inkscape:current-layer="svg17"
     inkscape:document-rotation="0" />
  <defs
     id="defs9">
    <filter
       id="Filter_0">
      <feFlood
         flood-color="rgb(204, 20, 55)"
         flood-opacity="1"
         result="floodOut"
         id="feFlood2" />
      <feComposite
         operator="atop"
         in="floodOut"
         in2="SourceGraphic"
         result="compOut"
         id="feComposite4" />
      <feBlend
         mode="normal"
         in="compOut"
         in2="SourceGraphic"
         id="feBlend6" />
    </filter>
  </defs>
  <g
     id="g1081"
     transform="translate(-25.773047,-0.43632791)"
     style="stroke:#cc0c34;stroke-opacity:1;fill:#cc0c34;fill-opacity:1">
    <path
       id="path888"
       style="font-style:normal;font-variant:normal;font-weight:500;font-stretch:normal;font-size:133.851px;font-family:'Avenir Next LT Pro';-inkscape-font-specification:'Avenir Next LT Pro Medium';fill:#cc0c34;stroke:#cc0c34;stroke-width:0.846715;filter:url(#Filter_0);stroke-opacity:1;fill-opacity:1"
       d="M 29.263672,10.771484 V 46.669922 H 61.449219 V 45.111328 H 39.123047 V 19.837891 h 23.914062 v -9.066407 z m 0,41.105469 v 39.134766 h 34.90625 V 81.832031 H 39.123047 V 53.611328 h 22.326172 v -1.734375 z" />
    <path
       id="path890"
       style="font-style:normal;font-variant:normal;font-weight:500;font-stretch:normal;font-size:133.851px;font-family:'Avenir Next LT Pro';-inkscape-font-specification:'Avenir Next LT Pro Medium';fill:#cc0c34;stroke:#cc0c34;stroke-width:0.846715;filter:url(#Filter_0);stroke-opacity:1;fill-opacity:1"
       d="m 69.269531,10.771484 8.822266,35.898438 H 88.513672 L 80.490234,10.771484 Z m 42.046879,0 -8.02344,35.898438 h 9.92773 l 8.97461,-35.898438 z m -31.945316,41.105469 9.61914,39.134766 h 13.146486 l 9.7832,-39.134766 h -9.79101 L 96.015625,79.224609 H 95.789062 L 89.677734,51.876953 Z" />
    <path
       id="path892"
       style="font-style:normal;font-variant:normal;font-weight:500;font-stretch:normal;font-size:133.851px;font-family:'Avenir Next LT Pro';-inkscape-font-specification:'Avenir Next LT Pro Medium';fill:#cc0c34;stroke:#cc0c34;stroke-width:0.846715;filter:url(#Filter_0);stroke-opacity:1;fill-opacity:1"
       d="m 131.60352,10.771484 v 35.898438 h 32.18554 V 45.111328 H 141.46289 V 19.837891 h 23.91406 v -9.066407 z m 0,41.105469 v 39.134766 h 34.90625 V 81.832031 H 141.46289 V 53.611328 h 22.32617 v -1.734375 z" />
    <path
       id="path894"
       style="font-style:normal;font-variant:normal;font-weight:500;font-stretch:normal;font-size:133.851px;font-family:'Avenir Next LT Pro';-inkscape-font-specification:'Avenir Next LT Pro Medium';display:inline;fill:#cc0c34;stroke:#cc0c34;stroke-width:0.846715;filter:url(#Filter_0);stroke-opacity:1;fill-opacity:1"
       d="m 179.88281,10.771484 v 35.898438 h 9.40625 V 28.791016 h 0.33985 l 7.35937,17.878906 h 9.68945 L 192.12305,10.771484 Z m 37.85352,0 v 35.898438 h 9.40625 V 10.771484 Z m -37.85352,41.105469 v 39.134766 h 9.40625 V 51.876953 Z m 19.25,0 16.10938,39.134766 h 11.90039 V 51.876953 h -9.40625 v 21.228516 h -0.33985 l -8.60742,-21.228516 z" />
    <path
       id="path896"
       style="font-style:normal;font-variant:normal;font-weight:500;font-stretch:normal;font-size:133.851px;font-family:'Avenir Next LT Pro';-inkscape-font-specification:'Avenir Next LT Pro Medium';fill:#cc0c34;stroke:#cc0c34;stroke-width:0.846715;filter:url(#Filter_0);stroke-opacity:1;fill-opacity:1"
       d="m 235.98242,10.771484 v 8.726563 h 15.30078 v 27.171875 h 10.08594 V 19.498047 h 15.30078 v -8.726563 z m 15.30078,41.105469 v 39.134766 h 10.08594 V 51.876953 Z" />
    <path
       id="path898"
       style="font-style:normal;font-variant:normal;font-weight:500;font-stretch:normal;font-size:133.851px;font-family:'Avenir Next LT Pro';-inkscape-font-specification:'Avenir Next LT Pro Medium';fill:#cc0c34;stroke:#cc0c34;stroke-width:0.846715;filter:url(#Filter_0);stroke-opacity:1;fill-opacity:1"
       d="m 303.86914,8.8457031 c -10.65337,0 -21.30664,7.2525819 -21.30664,22.7792969 0,6.727899 2.06987,11.448006 5.25977,15.044922 h 16.98828 c -0.12481,-0.06306 -0.25042,-0.134973 -0.375,-0.197266 -6.57336,-3.40001 -12.01172,-7.027527 -12.01172,-15.074218 0,-9.406697 6.00514,-13.259766 11.78515,-13.259766 4.64668,0 8.61387,1.81267 11.56055,5.666016 l 6.12109,-7.253907 c -4.08,-5.100016 -10.42813,-7.7050779 -18.02148,-7.7050779 z M 294.1875,51.876953 c 1.46717,0.908747 3.00635,1.739503 4.58203,2.527344 7.14002,3.626678 13.0332,7.707163 13.0332,15.867187 0,8.500027 -4.98714,13.259766 -11.67382,13.259766 -5.32668,0 -10.87924,-2.718606 -14.39258,-7.251953 l -6.00586,7.365234 c 4.42001,5.553351 12.23841,9.294922 20.39844,9.294922 12.1267,0 21.64843,-8.614329 21.64843,-23.234375 0,-8.451377 -3.70715,-13.896437 -8.57812,-17.828125 z" />
    <path
       id="path900"
       style="font-style:normal;font-variant:normal;font-weight:500;font-stretch:normal;font-size:133.851px;font-family:'Avenir Next LT Pro';-inkscape-font-specification:'Avenir Next LT Pro Medium';fill:#cc0c34;stroke:#cc0c34;stroke-width:0.846715;filter:url(#Filter_0);stroke-opacity:1;fill-opacity:1"
       d="m 381.84375,8.8457031 c -16.53027,0 -27.1357,15.7562219 -28.33008,37.8242189 h 10.77735 c 0.87034,-15.938572 6.74523,-28.417969 18.00586,-28.417969 4.98668,0 9.51997,2.267277 12.80664,7.140625 l 6.3457,-6.914062 C 397.0292,12.018495 390.00377,8.8457031 381.84375,8.8457031 Z M 353.41016,51.876953 c 0.28563,23.530591 10.7734,41.0625 28.43359,41.0625 8.95336,0 15.29889,-4.194329 19.37891,-10.541015 l -6.11914,-6.6875 c -2.60668,4.420013 -7.02673,7.820312 -12.58008,7.820312 -12.1216,0 -18.11857,-14.410313 -18.33985,-31.654297 z" />
    <path
       id="path902"
       style="font-style:normal;font-variant:normal;font-weight:500;font-stretch:normal;font-size:133.851px;font-family:'Avenir Next LT Pro';-inkscape-font-specification:'Avenir Next LT Pro Medium';fill:#cc0c34;stroke:#cc0c34;stroke-width:0.846715;filter:url(#Filter_0);stroke-opacity:1;fill-opacity:1"
       d="m 411.99023,10.771484 v 35.898438 h 10.19922 V 10.771484 Z m 0,41.105469 v 39.134766 h 32.86524 V 81.492188 H 422.18945 V 51.876953 Z" />
    <path
       id="path904"
       style="font-style:normal;font-variant:normal;font-weight:500;font-stretch:normal;font-size:133.851px;font-family:'Avenir Next LT Pro';-inkscape-font-specification:'Avenir Next LT Pro Medium';fill:#cc0c34;stroke:#cc0c34;stroke-width:0.846715;filter:url(#Filter_0);stroke-opacity:1;fill-opacity:1"
       d="m 450.41016,10.771484 v 35.898438 h 10.19922 V 10.771484 Z m 37.51367,0 v 35.898438 h 10.19922 V 10.771484 Z m -37.51367,41.105469 v 11.595703 c 0,16.206717 6.00549,29.466797 23.68554,29.466797 17.79339,0 24.02735,-13.26008 24.02735,-29.466797 V 51.876953 h -10.19922 v 10.574219 c 0,10.766699 -2.83487,21.080078 -13.60156,21.080078 -10.88004,0 -13.71289,-10.313379 -13.71289,-21.080078 V 51.876953 Z" />
    <path
       id="path906"
       style="font-style:normal;font-variant:normal;font-weight:500;font-stretch:normal;font-size:133.851px;font-family:'Avenir Next LT Pro';-inkscape-font-specification:'Avenir Next LT Pro Medium';fill:#cc0c34;stroke:#cc0c34;stroke-width:0.846715;filter:url(#Filter_0);stroke-opacity:1;fill-opacity:1"
       d="m 514.66992,10.771484 v 35.898438 h 33.36719 c 4.09573,-2.87695 7.32031,-7.958442 7.32031,-16.064453 0,-15.866716 -12.24185,-19.833985 -21.42187,-19.833985 z m 9.63281,8.613282 h 8.5 c 6.57336,0 13.03321,3.173277 13.03321,12.80664 0,9.406696 -6.68663,13.033203 -12.80664,13.033203 h -8.72657 z m -9.63281,32.492187 v 39.134766 h 21.64649 c 9.63336,0 21.75976,-5.552891 21.75976,-22.09961 0,-8.452294 -3.35172,-13.929222 -7.3164,-17.035156 z m 9.63281,1.394531 h 9.40625 c 6.57335,0 14.28125,3.967571 14.28125,14.960938 0,9.860031 -6.23476,14.166016 -13.82812,14.166016 h -9.85938 z" />
    <path
       id="path908"
       style="font-style:normal;font-variant:normal;font-weight:500;font-stretch:normal;font-size:133.851px;font-family:'Avenir Next LT Pro';-inkscape-font-specification:'Avenir Next LT Pro Medium';fill:#cc0c34;stroke:#cc0c34;stroke-width:0.846715;filter:url(#Filter_0);stroke-opacity:1;fill-opacity:1"
       d="m 611.23047,8.8457031 c -10.65336,0 -21.30664,7.2525819 -21.30664,22.7792969 0,6.728103 2.0697,11.447966 5.25976,15.044922 h 16.98829 c -0.12487,-0.06309 -0.25036,-0.134943 -0.375,-0.197266 -6.57335,-3.40001 -12.01368,-7.027527 -12.01368,-15.074218 0,-9.406697 6.0071,-13.259766 11.78711,-13.259766 4.64668,0 8.61193,1.81267 11.5586,5.666016 L 629.25,16.550781 C 625.16998,11.450765 618.82383,8.8457031 611.23047,8.8457031 Z m -9.68359,43.0312499 c 1.4672,0.908772 3.00631,1.739485 4.58203,2.527344 7.14002,3.626678 13.0332,7.707163 13.0332,15.867187 0,8.500027 -4.98519,13.259766 -11.67188,13.259766 -5.32668,0 -10.88118,-2.718606 -14.39453,-7.251953 l -6.00586,7.365234 c 4.42002,5.553351 12.24036,9.294922 20.40039,9.294922 12.1267,0 21.64649,-8.614329 21.64649,-23.234375 0,-8.451574 -3.70699,-13.896416 -8.57813,-17.828125 z" />
    <path
       id="path910"
       style="font-style:normal;font-variant:normal;font-weight:500;font-stretch:normal;font-size:133.851px;font-family:'Avenir Next LT Pro';-inkscape-font-specification:'Avenir Next LT Pro Medium';fill:#cc0c34;stroke:#cc0c34;stroke-width:0.846715;filter:url(#Filter_0);stroke-opacity:1;fill-opacity:1"
       d="m 642.73633,10.771484 v 35.898438 h 10.08594 V 19.498047 h 9.18164 c 7.25336,0 12.23828,4.30609 12.23828,13.939453 0,6.654596 -2.32595,11.087757 -6.10938,13.232422 h 13.02344 c 1.99087,-3.522749 3.17383,-7.972081 3.17383,-13.345703 0,-17.340054 -11.55994,-22.552735 -21.30664,-22.552735 z m 0,41.105469 v 39.134766 h 10.08594 V 56.671875 h 10.88085 c 4.87035,0 9.5521,-1.605094 13.22266,-4.794922 z" />
    <path
       id="path912"
       style="font-style:normal;font-variant:normal;font-weight:500;font-stretch:normal;font-size:133.851px;font-family:'Avenir Next LT Pro';-inkscape-font-specification:'Avenir Next LT Pro Medium';fill:#cc0c34;stroke:#cc0c34;stroke-width:0.846715;filter:url(#Filter_0);stroke-opacity:1;fill-opacity:1"
       d="m 704.04883,10.771484 -9.02539,35.898438 h 9.23828 l 6.13476,-26.378906 h 0.45313 l 5.92969,26.378906 h 9.57812 l -8.82226,-35.898438 z m -10.33399,41.105469 -9.83789,39.134766 h 10.3125 l 4.64649,-18.8125 h 23.23437 l 4.53321,18.8125 h 10.65234 l -9.61914,-39.134766 h -9.6875 l 2.75976,12.275391 h -20.51367 l 2.85547,-12.275391 z" />
    <path
       id="path914"
       style="font-style:normal;font-variant:normal;font-weight:500;font-stretch:normal;font-size:133.851px;font-family:'Avenir Next LT Pro';-inkscape-font-specification:'Avenir Next LT Pro Medium';fill:#cc0c34;stroke:#cc0c34;stroke-width:0.846715;filter:url(#Filter_0);stroke-opacity:1;fill-opacity:1"
       d="m 747.00195,10.771484 v 35.898438 h 9.97461 V 19.384766 h 9.17969 c 6.46002,0 13.0332,2.94619 13.0332,13.71289 0,7.277 -3.29073,11.991732 -8.57226,13.572266 h 14.68164 c 2.34949,-3.319416 3.97656,-7.917078 3.97656,-14.025391 0,-15.866716 -9.85983,-21.873047 -21.5332,-21.873047 z m 0,41.105469 v 39.134766 h 9.97461 v -35.8125 h 9.29297 l 13.59961,35.8125 H 790.75 L 775.78906,53.271484 c 1.20623,-0.268049 2.46013,-0.733106 3.69727,-1.394531 z" />
    <path
       id="path916"
       style="font-style:normal;font-variant:normal;font-weight:500;font-stretch:normal;font-size:133.851px;font-family:'Avenir Next LT Pro';-inkscape-font-specification:'Avenir Next LT Pro Medium';fill:#cc0c34;stroke:#cc0c34;stroke-width:0.846715;filter:url(#Filter_0);stroke-opacity:1;fill-opacity:1"
       d="m 793.24219,10.771484 v 8.726563 h 15.30078 v 27.171875 h 10.08594 V 19.498047 h 15.30078 v -8.726563 z m 15.30078,41.105469 v 39.134766 h 10.08594 V 51.876953 Z" />
    <path
       id="path918"
       style="font-style:normal;font-variant:normal;font-weight:500;font-stretch:normal;font-size:133.851px;font-family:'Avenir Next LT Pro';-inkscape-font-specification:'Avenir Next LT Pro Medium';fill:#cc0c34;stroke:#cc0c34;stroke-width:0.846715;filter:url(#Filter_0);stroke-opacity:1;fill-opacity:1"
       d="m 852.96875,10.771484 -9.02539,35.898438 h 9.23828 l 6.13477,-26.378906 h 0.45312 l 5.92969,26.378906 h 9.57812 l -8.82226,-35.898438 z m -10.33398,41.105469 -9.83789,39.134766 h 10.3125 l 4.64648,-18.8125 h 23.23437 l 4.53321,18.8125 h 10.65234 l -9.61914,-39.134766 h -9.6875 l 2.75977,12.275391 h -20.51368 l 2.85547,-12.275391 z" />
    <path
       id="path920"
       style="font-style:normal;font-variant:normal;font-weight:500;font-stretch:normal;font-size:133.851px;font-family:'Avenir Next LT Pro';-inkscape-font-specification:'Avenir Next LT Pro Medium';display:inline;fill:#cc0c34;stroke:#cc0c34;stroke-width:0.846715;filter:url(#Filter_0);stroke-opacity:1;fill-opacity:1"
       d="m 895.92188,10.771484 v 35.898438 h 20.37304 L 941.0293,10.771484 h -11.78711 l -23.11914,35.701172 h -0.22657 V 10.771484 Z m 0,41.105469 v 39.134766 h 9.9746 V 51.876953 Z m 10.86914,0 23.8125,39.134766 h 12.12695 L 917.91016,51.876953 Z" />
  </g>
  <defs
     id="defs22">
    <filter
       id="filter20">
      <feFlood
         flood-color="rgb(204, 20, 55)"
         flood-opacity="1"
         result="floodOut"
         id="feFlood14" />
      <feComposite
         operator="atop"
         in="floodOut"
         in2="SourceGraphic"
         result="compOut"
         id="feComposite16" />
      <feBlend
         mode="normal"
         in="compOut"
         in2="SourceGraphic"
         id="feBlend18" />
    </filter>
  </defs>
  <defs
     id="defs38">
    <filter
       id="filter36">
      <feFlood
         flood-color="rgb(204, 20, 55)"
         flood-opacity="1"
         result="floodOut"
         id="feFlood30" />
      <feComposite
         operator="atop"
         in="floodOut"
         in2="SourceGraphic"
         result="compOut"
         id="feComposite32" />
      <feBlend
         mode="normal"
         in="compOut"
         in2="SourceGraphic"
         id="feBlend34" />
    </filter>
  </defs>
</svg>
