<?xml version="1.0" encoding="UTF-8" standalone="no"?>
<svg
   xmlns:dc="http://purl.org/dc/elements/1.1/"
   xmlns:cc="http://creativecommons.org/ns#"
   xmlns:rdf="http://www.w3.org/1999/02/22-rdf-syntax-ns#"
   xmlns:svg="http://www.w3.org/2000/svg"
   xmlns="http://www.w3.org/2000/svg"
   xmlns:sodipodi="http://sodipodi.sourceforge.net/DTD/sodipodi-0.dtd"
   xmlns:inkscape="http://www.inkscape.org/namespaces/inkscape"
   version="1.1"
   id="Capa_1"
   x="0px"
   y="0px"
   width="612px"
   height="612px"
   viewBox="0 0 612 612"
   style="enable-background:new 0 0 612 612;"
   xml:space="preserve"
   sodipodi:docname="navIconNextGray.svg"
   inkscape:version="1.0.1 (3bc2e813f5, 2020-09-07)"><metadata
   id="metadata44"><rdf:RDF><cc:Work
       rdf:about=""><dc:format>image/svg+xml</dc:format><dc:type
         rdf:resource="http://purl.org/dc/dcmitype/StillImage" /><dc:title></dc:title></cc:Work></rdf:RDF></metadata><defs
   id="defs42" /><sodipodi:namedview
   pagecolor="#ffffff"
   bordercolor="#666666"
   borderopacity="1"
   objecttolerance="10"
   gridtolerance="10"
   guidetolerance="10"
   inkscape:pageopacity="0"
   inkscape:pageshadow="2"
   inkscape:window-width="1920"
   inkscape:window-height="1017"
   id="namedview40"
   showgrid="false"
   inkscape:zoom="1.3888889"
   inkscape:cx="306"
   inkscape:cy="334.8"
   inkscape:window-x="-8"
   inkscape:window-y="-8"
   inkscape:window-maximized="1"
   inkscape:current-layer="Capa_1"
   inkscape:document-rotation="0" />
<g
   id="g7"
   style="fill:#bdbdbd;fill-opacity:1"
   transform="rotate(180,306,306)">
	<g
   id="Left"
   style="fill:#bdbdbd;fill-opacity:1">
		<g
   id="g4"
   style="fill:#bdbdbd;fill-opacity:1">
			<path
   d="m 353.812,172.125 c -7.478,0 -14.21,2.926 -19.335,7.612 L 334.419,179.66 219.67,284.848 c -5.91,5.451 -9.295,13.101 -9.295,21.152 0,8.051 3.385,15.701 9.295,21.152 l 114.75,105.188 0.058,-0.076 c 5.125,4.686 11.857,7.611 19.335,7.611 15.836,0 28.688,-12.852 28.688,-28.688 0,-8.357 -3.634,-15.836 -9.353,-21.076 l 0.058,-0.076 L 281.52,306 l 91.685,-84.054 -0.058,-0.077 c 5.719,-5.221 9.353,-12.68 9.353,-21.057 0,-15.835 -12.852,-28.687 -28.688,-28.687 z M 306,0 C 137.012,0 0,137.012 0,306 0,474.988 137.012,612 306,612 474.988,612 612,474.988 612,306 612,137.012 474.988,0 306,0 Z m 0,554.625 C 168.912,554.625 57.375,443.088 57.375,306 57.375,168.912 168.912,57.375 306,57.375 443.088,57.375 554.625,168.912 554.625,306 554.625,443.088 443.088,554.625 306,554.625 Z"
   id="path2"
   style="fill:#bdbdbd;fill-opacity:1" />
		</g>
	</g>
</g>
<g
   id="g9"
   style="fill:#bdbdbd;fill-opacity:1"
   transform="scale(-1)">
</g>
<g
   id="g11"
   style="fill:#bdbdbd;fill-opacity:1"
   transform="scale(-1)">
</g>
<g
   id="g13"
   style="fill:#bdbdbd;fill-opacity:1"
   transform="scale(-1)">
</g>
<g
   id="g15"
   style="fill:#bdbdbd;fill-opacity:1"
   transform="scale(-1)">
</g>
<g
   id="g17"
   style="fill:#bdbdbd;fill-opacity:1"
   transform="scale(-1)">
</g>
<g
   id="g19"
   style="fill:#bdbdbd;fill-opacity:1"
   transform="scale(-1)">
</g>
<g
   id="g21"
   style="fill:#bdbdbd;fill-opacity:1"
   transform="scale(-1)">
</g>
<g
   id="g23"
   style="fill:#bdbdbd;fill-opacity:1"
   transform="scale(-1)">
</g>
<g
   id="g25"
   style="fill:#bdbdbd;fill-opacity:1"
   transform="scale(-1)">
</g>
<g
   id="g27"
   style="fill:#bdbdbd;fill-opacity:1"
   transform="scale(-1)">
</g>
<g
   id="g29"
   style="fill:#bdbdbd;fill-opacity:1"
   transform="scale(-1)">
</g>
<g
   id="g31"
   style="fill:#bdbdbd;fill-opacity:1"
   transform="scale(-1)">
</g>
<g
   id="g33"
   style="fill:#bdbdbd;fill-opacity:1"
   transform="scale(-1)">
</g>
<g
   id="g35"
   style="fill:#bdbdbd;fill-opacity:1"
   transform="scale(-1)">
</g>
<g
   id="g37"
   style="fill:#bdbdbd;fill-opacity:1"
   transform="scale(-1)">
</g>
</svg>
