<?xml version="1.0" encoding="UTF-8" standalone="no"?>
<svg
   xmlns:dc="http://purl.org/dc/elements/1.1/"
   xmlns:cc="http://creativecommons.org/ns#"
   xmlns:rdf="http://www.w3.org/1999/02/22-rdf-syntax-ns#"
   xmlns:svg="http://www.w3.org/2000/svg"
   xmlns="http://www.w3.org/2000/svg"
   xmlns:sodipodi="http://sodipodi.sourceforge.net/DTD/sodipodi-0.dtd"
   xmlns:inkscape="http://www.inkscape.org/namespaces/inkscape"
   data-name="Livello 1"
   id="Livello_1"
   viewBox="0 0 128 90"
   version="1.1"
   sodipodi:docname="sendMsg.svg"
   width="128"
   height="90"
   inkscape:version="1.0.1 (3bc2e813f5, 2020-09-07)">
  <metadata
     id="metadata13">
    <rdf:RDF>
      <cc:Work
         rdf:about="">
        <dc:format>image/svg+xml</dc:format>
        <dc:type
           rdf:resource="http://purl.org/dc/dcmitype/StillImage" />
        <dc:title></dc:title>
      </cc:Work>
    </rdf:RDF>
  </metadata>
  <defs
     id="defs11" />
  <sodipodi:namedview
     pagecolor="#ffffff"
     bordercolor="#666666"
     borderopacity="1"
     objecttolerance="10"
     gridtolerance="10"
     guidetolerance="10"
     inkscape:pageopacity="0"
     inkscape:pageshadow="2"
     inkscape:window-width="1920"
     inkscape:window-height="1017"
     id="namedview9"
     showgrid="false"
     inkscape:zoom="6.640625"
     inkscape:cx="64"
     inkscape:cy="39.905882"
     inkscape:window-x="-8"
     inkscape:window-y="-8"
     inkscape:window-maximized="1"
     inkscape:current-layer="Livello_1" />
  <path
     d="m 116.73,12.83 a 3,3 0 0 0 -4.2,-0.61 L 64.14,48.34 a 1,1 0 0 1 -1.2,0 L 15.5,12.06 a 3.0001042,3.0001042 0 1 0 -3.64,4.77 l 37.3,28.53 -36.89,27.8 A 3.0190106,3.0190106 0 1 0 15.88,78 l 38.23,-28.86 5.18,4 a 7,7 0 0 0 8.43,0.06 L 73.16,49.14 111.84,78 a 3.0010082,3.0010082 0 1 0 3.59,-4.81 L 78.17,45.35 116.12,17 a 3,3 0 0 0 0.61,-4.17 z"
     id="path4"
     style="fill:#ffffff;fill-opacity:1" />
  <path
     d="M 113,0 H 15 A 15,15 0 0 0 0,15 v 60 a 15,15 0 0 0 15,15 h 98 A 15,15 0 0 0 128,75 V 15 A 15,15 0 0 0 113,0 Z m 9,75 a 9,9 0 0 1 -9,9 H 15 A 9,9 0 0 1 6,75 V 15 a 9,9 0 0 1 9,-8.9999999 h 98 A 9,9 0 0 1 122,15 Z"
     id="path6"
     style="fill:#ffffff;fill-opacity:1" />
</svg>
