<?xml version="1.0" encoding="UTF-8" standalone="no"?>
<svg
   xmlns:osb="http://www.openswatchbook.org/uri/2009/osb"
   xmlns:dc="http://purl.org/dc/elements/1.1/"
   xmlns:cc="http://creativecommons.org/ns#"
   xmlns:rdf="http://www.w3.org/1999/02/22-rdf-syntax-ns#"
   xmlns:svg="http://www.w3.org/2000/svg"
   xmlns="http://www.w3.org/2000/svg"
   xmlns:sodipodi="http://sodipodi.sourceforge.net/DTD/sodipodi-0.dtd"
   xmlns:inkscape="http://www.inkscape.org/namespaces/inkscape"
   id="Capa_1"
   version="1.1"
   viewBox="0 0 128 128"
   xml:space="preserve"
   sodipodi:docname="vkIcon.svg"
   inkscape:version="1.0.1 (3bc2e813f5, 2020-09-07)"
   width="128"
   height="128"><metadata
     id="metadata44"><rdf:RDF><cc:Work
         rdf:about=""><dc:format>image/svg+xml</dc:format><dc:type
           rdf:resource="http://purl.org/dc/dcmitype/StillImage" /><dc:title></dc:title></cc:Work></rdf:RDF></metadata><defs
     id="defs42"><linearGradient
       id="linearGradient871"
       osb:paint="solid"><stop
         style="stop-color:#ffffff;stop-opacity:1;"
         offset="0"
         id="stop869" /></linearGradient></defs><sodipodi:namedview
     pagecolor="#ffffff"
     bordercolor="#666666"
     borderopacity="1"
     objecttolerance="10"
     gridtolerance="10"
     guidetolerance="10"
     inkscape:pageopacity="0"
     inkscape:pageshadow="2"
     inkscape:window-width="1920"
     inkscape:window-height="1017"
     id="namedview40"
     showgrid="false"
     inkscape:zoom="7.5760277"
     inkscape:cx="56.098"
     inkscape:cy="50.818188"
     inkscape:window-x="-8"
     inkscape:window-y="-8"
     inkscape:window-maximized="1"
     inkscape:current-layer="Capa_1" /><path
     id="XMLID_11_"
     style="fill:#ffffff;fill-opacity:1;stroke-width:1"
     d="M 64.000004,0 A 64.000396,64.000396 0 0 0 0,64.000004 64.000396,64.000396 0 0 0 64.000004,128.00001 64.000396,64.000396 0 0 0 128.00001,64.000004 64.000396,64.000396 0 0 0 64.000004,0 Z m -6.357217,44.337862 c 1.025568,-0.01563 2.108251,-0.0095 3.235429,0.0023 3.512731,0.03537 4.524592,0.254039 5.898197,0.586032 4.139068,0.9994 2.734071,4.861183 2.734071,14.120465 0,2.963975 -0.532553,7.135896 1.606574,8.518628 0.91954,0.593251 3.168172,0.08914 8.794931,-9.465637 2.667349,-4.528104 4.668199,-9.853353 4.668199,-9.853353 0,0 0.435312,-0.949719 1.114128,-1.357009 0.694789,-0.415276 1.633313,-0.287445 1.633313,-0.287445 l 12.634219,-0.07799 c 0,0 3.797022,-0.452389 4.411952,1.261194 0.64459,1.799148 -1.41762,5.998753 -6.580047,12.879326 -8.476647,11.298013 -9.418879,10.242853 -2.382007,16.774321 6.723134,6.240546 8.114424,9.277412 8.342594,9.655039 2.78372,4.61595 -3.08614,4.975698 -3.08614,4.975698 l -11.223726,0.158206 c 0,0 -2.41012,0.477809 -5.584014,-1.702389 -4.197252,-2.880691 -8.157791,-10.374284 -11.241557,-9.39656 -3.128259,0.992555 -3.03043,7.734281 -3.03043,7.734281 0,0 0.02228,1.439312 -0.69076,2.205975 -0.774649,0.835115 -2.290649,1.000487 -2.290649,1.000487 h -5.024719 c 0,0 -11.082995,0.669332 -20.843119,-9.492376 C 30.094931,71.493507 20.693825,49.498559 20.693825,49.498559 c 0,0 -0.541894,-1.442057 0.0468,-2.139127 0.661703,-0.783776 2.464453,-0.833369 2.464453,-0.833369 l 12.008077,-0.07799 c 0,0 1.130796,0.187725 1.940812,0.782118 0.667408,0.490572 1.042825,1.408258 1.042825,1.408258 0,0 1.939618,4.907282 4.509993,9.347539 5.016395,8.668313 7.352322,10.56588 9.055637,9.637213 2.481387,-1.354211 1.73804,-12.255415 1.73804,-12.255415 0,0 0.04706,-3.956209 -1.247824,-5.717708 -1.002822,-1.365619 -2.894987,-1.76216 -3.730102,-1.873965 -0.675394,-0.09013 0.434243,-1.660266 1.871736,-2.36418 1.620603,-0.794044 4.171814,-1.02712 7.248521,-1.074021 z" /></svg>
